<?xml version="1.0" encoding="utf-8"?>
<!-- Generator: Adobe Illustrator 21.0.0, SVG Export Plug-In . SVG Version: 6.00 Build 0)  -->
<svg version="1.1" id="Capa_1" xmlns="http://www.w3.org/2000/svg" xmlns:xlink="http://www.w3.org/1999/xlink" x="0px" y="0px"
	 viewBox="0 0 206.8 46.6" style="enable-background:new 0 0 206.8 46.6;" xml:space="preserve">
<style type="text/css">
	.st0{fill:#0072B7;}
	.st1{fill:#8F8D92;}
	.st2{fill-rule:evenodd;clip-rule:evenodd;fill:#FFFFFF;}
	.st3{fill:#FFFFFF;}
</style>
<g>
	<path class="st0" d="M127.6,0c-0.8,0-1.4,1.4-2.2,1.4c-0.8,0.1-1.7-1.1-2.4-1c-0.7,0.1-1.1,1.6-1.9,1.8c-0.7,0.2-1.9-0.8-2.6-0.5
		c-0.7,0.3-0.8,1.8-1.5,2.2c-0.7,0.3-2-0.4-2.6,0c-0.6,0.4-0.4,1.9-1,2.4c-0.6,0.5-2,0-2.6,0.5c-0.5,0.5,0,2-0.5,2.5
		c-0.5,0.6-2,0.4-2.4,1c-0.4,0.6,0.4,1.9,0,2.6c-0.4,0.7-1.9,0.8-2.2,1.4c-0.3,0.7,0.7,1.8,0.5,2.5c-0.2,0.7-1.7,1.1-1.9,1.8
		c-0.1,0.7,1.1,1.6,1,2.4c-0.1,0.7-1.5,1.4-1.5,2.2c0,0.7,1.4,1.4,1.5,2.2c0.1,0.7-1.2,1.7-1,2.4c0.1,0.7,1.6,1.1,1.9,1.8
		c0.2,0.7-0.8,1.9-0.5,2.5c0.3,0.7,1.8,0.8,2.2,1.4c0.4,0.7-0.4,2,0,2.6c0.4,0.6,1.9,0.4,2.4,1c0.5,0.6,0,2,0.5,2.5
		c0.5,0.5,2,0,2.6,0.5c0.6,0.5,0.4,2,1,2.4c0.6,0.4,2-0.3,2.6,0c0.7,0.4,0.8,1.9,1.5,2.2c0.7,0.3,1.9-0.7,2.6-0.5
		c0.7,0.2,1.1,1.7,1.9,1.8c0.7,0.1,1.7-1.1,2.4-1c0.7,0.1,1.4,1.4,2.2,1.4c0.8,0,1.4-1.4,2.2-1.4c0.8-0.1,1.7,1.1,2.4,1
		c0.7-0.1,1.1-1.6,1.9-1.8c0.7-0.2,1.9,0.8,2.6,0.5c0.7-0.3,0.8-1.8,1.5-2.2c0.7-0.4,2,0.4,2.6,0c0.6-0.4,0.4-1.9,1-2.4
		c0.6-0.5,2,0,2.6-0.5c0.5-0.5,0-2,0.5-2.5c0.5-0.6,2-0.4,2.4-1c0.4-0.6-0.4-1.9,0-2.6c0.4-0.6,1.9-0.8,2.2-1.4
		c0.3-0.7-0.7-1.8-0.5-2.5c0.2-0.7,1.7-1.1,1.9-1.8c0.1-0.7-1.1-1.6-1-2.4c0.1-0.7,1.5-1.4,1.5-2.2c0-0.7-1.4-1.4-1.5-2.2
		c-0.1-0.7,1.2-1.7,1-2.4c-0.1-0.7-1.6-1.1-1.9-1.8c-0.2-0.7,0.8-1.9,0.5-2.5c-0.3-0.7-1.8-0.8-2.2-1.4c-0.4-0.7,0.4-2,0-2.6
		c-0.4-0.6-1.9-0.4-2.4-1c-0.5-0.6,0-2-0.5-2.5c-0.5-0.5-2,0-2.6-0.5c-0.6-0.5-0.4-2-1-2.4c-0.6-0.4-2,0.3-2.6,0
		c-0.7-0.3-0.8-1.9-1.5-2.2c-0.7-0.3-1.9,0.7-2.6,0.5c-0.7-0.2-1.1-1.7-1.9-1.8c-0.7-0.1-1.7,1.1-2.4,1C129,1.4,128.3,0,127.6,0"/>
	<path class="st1" d="M21.3,11.4c1,0.6,1.6,1,1.6,1.8c0,0.9-0.7,1.7-2.2,1.7c-0.7,0-1.6-0.3-2.3-0.7l-0.4-0.2l-0.8,2.3l0.3,0.1
		c1.1,0.4,2,0.7,3.4,0.7c3,0,4.4-2.1,4.4-4.1c0-1.9-1.4-2.7-2.5-3.4c-0.9-0.6-1.5-1-1.5-1.6c0-1.3,1.4-1.5,2-1.5
		c0.7,0,1.4,0.2,1.9,0.5l0.4,0.2l0.7-2.2L26.1,5c-0.9-0.4-1.9-0.6-2.9-0.6c-2,0-4.2,1.3-4.2,3.7C18.9,10,20.3,10.8,21.3,11.4"/>
	<path class="st1" d="M32.5,17.1c4.4,0,6.7-3.8,6.7-7.7c0-3.2-1.9-5.1-5.1-5.1c-4.3,0-6.9,3.8-6.9,7.4
		C27.3,15.2,29.1,17.1,32.5,17.1 M34.1,6.6c1.8,0,2.7,1.1,2.7,3.1c0,2.2-1.5,5.3-4.2,5.3c-1.8,0-2.8-1.1-2.8-3.1
		C29.7,9.3,31.4,6.6,34.1,6.6"/>
	<polygon class="st1" points="44.6,8.2 47.5,16.9 50.2,16.9 52.9,4.6 50.6,4.6 48.7,13.5 45.8,4.6 43,4.6 40.5,16.9 42.8,16.9 	"/>
	<path class="st1" d="M58.7,17.1c2.9,0,4.6-1.7,5.4-5.3l1.6-7.2h-2.4L62,10.8c-0.4,2-1.1,4.2-3.2,4.2c-1.4,0-2.2-0.7-2.2-2
		c0-0.2,0-0.6,0.1-1l1.6-7.4H56l-1.3,6l-0.1,0.3c-0.2,0.7-0.3,1.6-0.3,2.4C54.3,14.6,55.2,17.1,58.7,17.1"/>
	<polygon class="st1" points="9.6,16.9 11.9,16.9 13,11.9 19.5,4.6 16.5,4.6 12.1,9.6 10,4.6 7.4,4.6 10.7,11.8 	"/>
	<polygon class="st1" points="67.5,16.9 69.9,16.9 72.1,6.8 75.7,6.8 76.2,4.6 66.6,4.6 66.1,6.8 69.7,6.8 	"/>
	<path class="st1" d="M70.9,18.2c-0.5,0-0.9,0-1.4,0c-6.3,0.4-10.5,2.6-14.9,5c-3.6,1.9-7.3,3.9-12.3,4.9c-1.2,0.2-2.4,0.4-3.5,0.4
		c-4.6,0-8.4-2-12.1-3.8c-3.6-1.9-7.1-3.7-11.3-3.7c-0.7,0-1.3,0-2,0.1c-6.4,0.9-10.3,3.4-13.2,5.2L0,26.5l0.3,0.6
		c0.1,0,8.3-4,14.5-3.9c4.6,0.1,8.1,1.8,11.9,3.6c4.1,1.9,8.4,3.9,14.1,3.9c0.9,0,1.9-0.1,2.8-0.2c5.6-0.6,9.4-3,13-5.4
		c3.8-2.5,7.3-4.8,13-5.2c1.2-0.1,2.4-0.1,3.5-0.1c3.9,0,7.1,0.5,9.4,0.9c0.5,0.1,1,0.2,1.4,0.2l0.1-0.7
		C84.1,20.2,76.8,18.2,70.9,18.2"/>
	<polygon class="st1" points="12,38.5 8.9,34.4 7.7,34.4 7.7,40.9 9,40.9 9,36.7 12.2,40.9 13.3,40.9 13.3,34.4 12,34.4 	"/>
	<path class="st1" d="M17.6,38.7c0,0.6-0.4,1-0.9,1c-0.6,0-0.9-0.4-0.9-1V36h-1.3V39c0,1.2,0.7,1.9,1.8,1.9c0.5,0,1-0.2,1.3-0.6v0.5
		h1.3V36h-1.3V38.7z"/>
	<path class="st1" d="M21.6,34.7h-1.3V36h-0.6v1.2h0.6v2.3c0,1,0.5,1.5,1.5,1.5c0.4,0,0.7-0.1,1-0.2l0.1,0v-1.1l-0.2,0.1
		c-0.2,0.1-0.4,0.1-0.6,0.1c-0.3,0-0.5-0.1-0.5-0.5v-2.2h1.3V36h-1.3V34.7z"/>
	<path class="st1" d="M25,36.7V36h-1.3v4.9H25V39c0-1.1,0.5-1.7,1.5-1.7h0.2v-1.4l-0.1,0C25.8,35.8,25.3,36.1,25,36.7"/>
	<rect x="27.4" y="36" class="st1" width="1.3" height="4.9"/>
	<rect x="27.3" y="34.2" class="st1" width="1.4" height="1.2"/>
	<path class="st1" d="M33.3,39.3c-0.4,0.4-0.7,0.5-1.1,0.5c-0.7,0-1.3-0.6-1.3-1.4c0-0.8,0.5-1.4,1.2-1.4c0.5,0,0.9,0.3,1.1,0.5
		l0.1,0.1l0.8-0.9l-0.1-0.1c-0.5-0.6-1.1-0.8-1.9-0.8c-1.4,0-2.5,1.1-2.5,2.6c0,1.4,1.1,2.5,2.5,2.5c1,0,1.6-0.5,2-0.9l0.1-0.1
		L33.3,39.3L33.3,39.3z"/>
	<rect x="35" y="36" class="st1" width="1.3" height="4.9"/>
	<rect x="34.9" y="34.2" class="st1" width="1.4" height="1.2"/>
	<polygon class="st1" points="41.4,34.4 40.2,33.9 39.1,35.6 40.2,35.6 	"/>
	<path class="st1" d="M39.8,35.9c-1.5,0-2.6,1.1-2.6,2.6c0,1.4,1.1,2.5,2.6,2.5c1.5,0,2.6-1.1,2.6-2.6C42.4,37,41.2,35.9,39.8,35.9
		 M39.8,37c0.7,0,1.3,0.6,1.3,1.4c0,0.7-0.4,1.4-1.3,1.4c-0.7,0-1.3-0.6-1.3-1.4C38.5,37.6,39,37,39.8,37"/>
	<path class="st1" d="M45.9,35.9c-0.5,0-1,0.2-1.3,0.6V36h-1.3v4.9h1.3v-2.7c0-0.6,0.4-1,0.9-1c0.6,0,0.9,0.4,0.9,1v2.8h1.3v-3.1
		C47.6,36.6,47,35.9,45.9,35.9"/>
	<rect x="48.5" y="37.4" class="st1" width="2.8" height="1.3"/>
	<path class="st1" d="M55,37c-1.2-0.3-1.4-0.5-1.4-0.9c0-0.4,0.4-0.6,0.9-0.6c0.5,0,1.1,0.2,1.6,0.6l0.1,0.1l0.7-1l-0.1-0.1
		c-0.7-0.5-1.4-0.8-2.3-0.8c-1.3,0-2.2,0.8-2.2,1.9c0,1.2,0.8,1.6,2.1,2c1.2,0.3,1.3,0.5,1.3,0.9c0,0.4-0.4,0.7-1,0.7
		c-0.7,0-1.2-0.2-1.9-0.8l-0.1-0.1l-0.8,1l0.1,0.1c0.7,0.7,1.7,1,2.7,1c1.4,0,2.3-0.8,2.3-2C57,37.7,56,37.3,55,37"/>
	<path class="st1" d="M60,35.9c-0.8,0-1.3,0.2-1.8,0.4l-0.1,0l0.4,1.1l0.1,0c0.4-0.2,0.8-0.3,1.3-0.3c0.5,0,1,0.1,1,0.8
		c-0.3-0.1-0.7-0.2-1.2-0.2c-1.3,0-2,0.6-2,1.7c0,0.9,0.7,1.6,1.8,1.6c0.6,0,1-0.2,1.4-0.5v0.4h1.3V38C62.1,36.6,61.3,35.9,60,35.9
		 M60.9,38.9v0.2c0,0.5-0.5,0.9-1.1,0.9c-0.4,0-0.8-0.2-0.8-0.6c0-0.4,0.4-0.6,1-0.6C60.2,38.7,60.6,38.8,60.9,38.9"/>
	<rect x="63.2" y="34.2" class="st1" width="1.3" height="6.7"/>
	<path class="st1" d="M68.8,38.7c0,0.6-0.4,1-0.9,1c-0.6,0-0.9-0.4-0.9-1V36h-1.3V39c0,1.2,0.7,1.9,1.8,1.9c0.5,0,1-0.2,1.3-0.6v0.5
		h1.3V36h-1.3V38.7z"/>
	<path class="st1" d="M74.7,34.2v2.3c-0.4-0.4-0.9-0.6-1.5-0.6c-1.1,0-2.3,0.9-2.3,2.6c0,1.6,1.2,2.5,2.3,2.5c0.6,0,1.1-0.2,1.5-0.7
		v0.6H76v-6.7H74.7z M74.7,38.4c0,0.9-0.6,1.4-1.2,1.4c-0.7,0-1.2-0.6-1.2-1.4c0-0.8,0.5-1.4,1.2-1.4C74.2,37,74.7,37.6,74.7,38.4"
		/>
	<rect x="93.6" y="2.5" class="st1" width="1.2" height="41.5"/>
</g>
<g>
	<path class="st0" d="M163.8,17.7c-0.1,0.3-0.3,0.6-0.6,0.8c-0.3,0.2-0.6,0.4-0.9,0.5c-0.3,0.1-0.7,0.2-1.1,0.2H160v2.1h-1.5v-7h2.8
		c0.4,0,0.8,0.1,1.1,0.2s0.6,0.3,0.8,0.5c0.2,0.2,0.4,0.5,0.5,0.8c0.1,0.3,0.2,0.6,0.2,1v0C164,17.1,163.9,17.4,163.8,17.7z
		 M162.4,16.7c0-0.3-0.1-0.6-0.3-0.8c-0.2-0.2-0.5-0.3-0.9-0.3H160v2.1h1.2c0.4,0,0.7-0.1,0.9-0.3C162.3,17.2,162.4,17,162.4,16.7
		L162.4,16.7z"/>
</g>
<g>
	<path class="st0" d="M169.7,18.9c0,0.1,0,0.1,0,0.2h-3.7c0.1,0.3,0.2,0.6,0.5,0.8c0.2,0.2,0.5,0.3,0.9,0.3c0.3,0,0.5,0,0.7-0.1
		c0.2-0.1,0.4-0.2,0.6-0.4l0.9,0.8c-0.3,0.3-0.6,0.6-0.9,0.7s-0.8,0.3-1.3,0.3c-0.4,0-0.8-0.1-1.1-0.2s-0.6-0.3-0.9-0.6
		s-0.4-0.5-0.6-0.9c-0.1-0.3-0.2-0.7-0.2-1.1v0c0-0.4,0.1-0.7,0.2-1.1c0.1-0.3,0.3-0.6,0.5-0.9c0.2-0.3,0.5-0.5,0.8-0.6
		c0.3-0.1,0.7-0.2,1.1-0.2c0.4,0,0.8,0.1,1.2,0.2c0.3,0.2,0.6,0.4,0.8,0.6s0.4,0.6,0.5,0.9c0.1,0.3,0.2,0.7,0.2,1.1v0
		C169.7,18.8,169.7,18.8,169.7,18.9z M167.9,17.3c-0.2-0.2-0.4-0.3-0.8-0.3c-0.3,0-0.6,0.1-0.8,0.3c-0.2,0.2-0.3,0.5-0.4,0.8h2.3
		C168.2,17.8,168,17.5,167.9,17.3z"/>
</g>
<g>
	<path class="st0" d="M174.2,21.2v-3c0-0.4-0.1-0.6-0.2-0.8s-0.4-0.3-0.7-0.3s-0.5,0.1-0.7,0.3c-0.2,0.2-0.3,0.5-0.3,0.8v3h-1.5
		v-5.3h1.5v0.8c0.1-0.1,0.2-0.2,0.3-0.3c0.1-0.1,0.2-0.2,0.3-0.3c0.1-0.1,0.3-0.1,0.4-0.2c0.2,0,0.3-0.1,0.5-0.1
		c0.6,0,1,0.2,1.3,0.5s0.5,0.8,0.5,1.5v3.5H174.2z"/>
</g>
<g>
	<path class="st0" d="M181,20.3c-0.1,0.2-0.2,0.4-0.4,0.5c-0.2,0.1-0.4,0.2-0.7,0.3s-0.5,0.1-0.8,0.1c-0.4,0-0.8-0.1-1.2-0.2
		s-0.8-0.3-1.1-0.6l0.6-1c0.3,0.2,0.6,0.4,0.9,0.5c0.3,0.1,0.6,0.2,0.8,0.2c0.2,0,0.4,0,0.5-0.1c0.1-0.1,0.2-0.2,0.2-0.3v0
		c0-0.1,0-0.1-0.1-0.2c-0.1-0.1-0.1-0.1-0.2-0.2c-0.1,0-0.2-0.1-0.4-0.1c-0.1,0-0.3-0.1-0.4-0.1c-0.2-0.1-0.4-0.1-0.6-0.2
		c-0.2-0.1-0.4-0.2-0.5-0.3c-0.2-0.1-0.3-0.3-0.4-0.5c-0.1-0.2-0.1-0.4-0.1-0.7v0c0-0.3,0.1-0.5,0.2-0.7c0.1-0.2,0.2-0.4,0.4-0.5
		s0.4-0.3,0.6-0.3c0.2-0.1,0.5-0.1,0.8-0.1c0.3,0,0.7,0.1,1,0.2s0.7,0.3,1,0.5l-0.6,1c-0.3-0.2-0.5-0.3-0.8-0.4
		c-0.3-0.1-0.5-0.1-0.7-0.1c-0.2,0-0.3,0-0.4,0.1c-0.1,0.1-0.1,0.2-0.1,0.3v0c0,0.1,0,0.1,0.1,0.2s0.1,0.1,0.2,0.2s0.2,0.1,0.3,0.1
		c0.1,0,0.3,0.1,0.4,0.1c0.2,0.1,0.4,0.1,0.6,0.2c0.2,0.1,0.4,0.2,0.5,0.3c0.2,0.1,0.3,0.3,0.4,0.4c0.1,0.2,0.1,0.4,0.1,0.6v0
		C181.1,19.9,181.1,20.1,181,20.3z"/>
</g>
<g>
	<path class="st0" d="M185.3,21.2v-0.6c-0.2,0.2-0.4,0.4-0.7,0.5c-0.3,0.1-0.6,0.2-0.9,0.2c-0.3,0-0.5,0-0.7-0.1s-0.4-0.2-0.6-0.3
		c-0.2-0.1-0.3-0.3-0.4-0.5c-0.1-0.2-0.1-0.4-0.1-0.7v0c0-0.3,0.1-0.5,0.2-0.8c0.1-0.2,0.3-0.4,0.4-0.5c0.2-0.1,0.4-0.2,0.7-0.3
		s0.6-0.1,0.9-0.1c0.3,0,0.5,0,0.7,0.1c0.2,0,0.4,0.1,0.6,0.2v-0.1c0-0.3-0.1-0.6-0.3-0.7c-0.2-0.2-0.5-0.2-0.9-0.2
		c-0.3,0-0.5,0-0.8,0.1s-0.5,0.1-0.7,0.2l-0.4-1.2c0.3-0.1,0.6-0.2,0.9-0.3s0.7-0.1,1.2-0.1c0.8,0,1.4,0.2,1.8,0.6
		c0.4,0.4,0.6,1,0.6,1.7v3.1H185.3z M185.4,19c-0.1-0.1-0.3-0.1-0.4-0.1c-0.2,0-0.3-0.1-0.5-0.1c-0.3,0-0.6,0.1-0.8,0.2
		c-0.2,0.1-0.3,0.3-0.3,0.5v0c0,0.2,0.1,0.4,0.2,0.5c0.2,0.1,0.4,0.2,0.6,0.2c0.4,0,0.6-0.1,0.9-0.3c0.2-0.2,0.3-0.4,0.3-0.7V19z"/>
</g>
<g>
	<path class="st0" d="M191.7,21.2v-3c0-0.4-0.1-0.6-0.2-0.8s-0.4-0.3-0.7-0.3s-0.5,0.1-0.7,0.3c-0.2,0.2-0.3,0.5-0.3,0.8v3h-1.5
		v-5.3h1.5v0.8c0.1-0.1,0.2-0.2,0.3-0.3c0.1-0.1,0.2-0.2,0.3-0.3c0.1-0.1,0.3-0.1,0.4-0.2c0.2,0,0.3-0.1,0.5-0.1
		c0.6,0,1,0.2,1.3,0.5s0.5,0.8,0.5,1.5v3.5H191.7z"/>
	<path class="st0" d="M198.4,21.2v-0.8c-0.2,0.3-0.4,0.5-0.7,0.6c-0.3,0.2-0.6,0.2-1,0.2c-0.3,0-0.6-0.1-0.9-0.2
		c-0.3-0.1-0.6-0.3-0.8-0.5c-0.2-0.2-0.4-0.5-0.5-0.9c-0.1-0.3-0.2-0.7-0.2-1.2v0c0-0.4,0.1-0.8,0.2-1.2c0.1-0.3,0.3-0.6,0.5-0.9
		c0.2-0.2,0.5-0.4,0.8-0.5c0.3-0.1,0.6-0.2,0.9-0.2c0.4,0,0.7,0.1,1,0.2s0.5,0.3,0.7,0.6v-2.6h1.5v7.3H198.4z M198.4,18.5
		c0-0.2,0-0.4-0.1-0.6c-0.1-0.2-0.2-0.3-0.3-0.5s-0.3-0.2-0.4-0.3s-0.3-0.1-0.5-0.1c-0.2,0-0.3,0-0.5,0.1c-0.2,0.1-0.3,0.2-0.4,0.3
		c-0.1,0.1-0.2,0.3-0.3,0.5c-0.1,0.2-0.1,0.4-0.1,0.6v0c0,0.2,0,0.4,0.1,0.6c0.1,0.2,0.2,0.3,0.3,0.5c0.1,0.1,0.3,0.2,0.4,0.3
		c0.2,0.1,0.3,0.1,0.5,0.1c0.2,0,0.3,0,0.5-0.1s0.3-0.2,0.4-0.3s0.2-0.3,0.3-0.5C198.4,19,198.4,18.8,198.4,18.5L198.4,18.5z"/>
</g>
<g>
	<path class="st0" d="M206.5,19.6c-0.1,0.3-0.3,0.6-0.6,0.9c-0.3,0.3-0.6,0.5-0.9,0.6c-0.4,0.1-0.7,0.2-1.2,0.2
		c-0.4,0-0.8-0.1-1.1-0.2c-0.4-0.1-0.7-0.3-0.9-0.6c-0.3-0.2-0.5-0.5-0.6-0.9c-0.1-0.3-0.2-0.7-0.2-1.1v0c0-0.4,0.1-0.7,0.2-1.1
		c0.1-0.3,0.3-0.6,0.6-0.9c0.3-0.3,0.6-0.5,0.9-0.6c0.4-0.1,0.7-0.2,1.2-0.2c0.4,0,0.8,0.1,1.1,0.2c0.4,0.1,0.7,0.3,0.9,0.6
		c0.3,0.2,0.5,0.5,0.6,0.9c0.1,0.3,0.2,0.7,0.2,1.1v0C206.8,18.9,206.7,19.3,206.5,19.6z M205.3,18.5c0-0.2,0-0.4-0.1-0.6
		c-0.1-0.2-0.2-0.3-0.3-0.5s-0.3-0.2-0.4-0.3s-0.4-0.1-0.6-0.1c-0.2,0-0.4,0-0.6,0.1c-0.2,0.1-0.3,0.2-0.4,0.3
		c-0.1,0.1-0.2,0.3-0.3,0.5c-0.1,0.2-0.1,0.4-0.1,0.6v0c0,0.2,0,0.4,0.1,0.6c0.1,0.2,0.2,0.3,0.3,0.5c0.1,0.1,0.3,0.2,0.4,0.3
		c0.2,0.1,0.4,0.1,0.6,0.1c0.2,0,0.4,0,0.6-0.1c0.2-0.1,0.3-0.2,0.4-0.3c0.1-0.1,0.2-0.3,0.3-0.5C205.2,18.9,205.3,18.8,205.3,18.5
		L205.3,18.5z"/>
</g>
<g>
	<path class="st0" d="M163.2,28.6c0,0.1,0,0.1,0,0.2h-3.7c0.1,0.3,0.2,0.6,0.4,0.8c0.2,0.2,0.5,0.3,0.8,0.3c0.3,0,0.5,0,0.7-0.1
		c0.2-0.1,0.4-0.2,0.6-0.4l0.9,0.8c-0.3,0.3-0.6,0.6-0.9,0.7c-0.4,0.2-0.8,0.3-1.3,0.3c-0.4,0-0.8-0.1-1.1-0.2s-0.6-0.3-0.9-0.6
		c-0.2-0.2-0.4-0.5-0.6-0.9c-0.1-0.3-0.2-0.7-0.2-1.1v0c0-0.4,0.1-0.7,0.2-1.1c0.1-0.3,0.3-0.6,0.5-0.9c0.2-0.3,0.5-0.5,0.8-0.6
		c0.3-0.1,0.7-0.2,1.1-0.2c0.4,0,0.8,0.1,1.1,0.2s0.6,0.4,0.8,0.6s0.4,0.6,0.5,0.9c0.1,0.3,0.2,0.7,0.2,1.1v0
		C163.2,28.5,163.2,28.6,163.2,28.6z M161.4,27c-0.2-0.2-0.4-0.3-0.8-0.3c-0.3,0-0.6,0.1-0.8,0.3c-0.2,0.2-0.3,0.5-0.4,0.8h2.3
		C161.7,27.5,161.6,27.2,161.4,27z"/>
	<path class="st0" d="M167.3,30.9v-3c0-0.4-0.1-0.6-0.2-0.8c-0.2-0.2-0.4-0.3-0.7-0.3s-0.5,0.1-0.7,0.3c-0.2,0.2-0.3,0.5-0.3,0.8v3
		H164v-5.3h1.5v0.8c0.1-0.1,0.2-0.2,0.3-0.3c0.1-0.1,0.2-0.2,0.3-0.3c0.1-0.1,0.3-0.1,0.4-0.2s0.3-0.1,0.5-0.1c0.6,0,1,0.2,1.3,0.5
		c0.3,0.4,0.5,0.8,0.5,1.5v3.5H167.3z"/>
</g>
<g>
	<path class="st0" d="M173.7,30.9c-0.2,0.1-0.4,0.1-0.7,0.1c-0.2,0-0.4,0-0.6-0.1s-0.3-0.1-0.5-0.3c-0.1-0.1-0.2-0.3-0.3-0.5
		c-0.1-0.2-0.1-0.5-0.1-0.8v-2.5h-0.6v-1.3h0.6v-1.4h1.5v1.4h1.2v1.3H173v2.3c0,0.3,0.2,0.5,0.5,0.5c0.3,0,0.5-0.1,0.7-0.2v1.2
		C174.1,30.8,173.9,30.9,173.7,30.9z"/>
	<path class="st0" d="M178.3,30.9v-0.8c-0.1,0.1-0.2,0.2-0.3,0.3s-0.2,0.2-0.3,0.3c-0.1,0.1-0.3,0.1-0.4,0.2c-0.2,0-0.3,0.1-0.5,0.1
		c-0.6,0-1-0.2-1.3-0.5c-0.3-0.4-0.5-0.8-0.5-1.5v-3.5h1.5v3c0,0.4,0.1,0.6,0.2,0.8c0.2,0.2,0.4,0.3,0.7,0.3c0.3,0,0.5-0.1,0.7-0.3
		c0.2-0.2,0.3-0.5,0.3-0.8v-3h1.5v5.3H178.3z"/>
</g>
<g>
	<path class="st0" d="M186.4,30.1c-0.1,0.2-0.2,0.4-0.4,0.5c-0.2,0.1-0.4,0.2-0.6,0.3c-0.2,0.1-0.5,0.1-0.8,0.1
		c-0.4,0-0.8-0.1-1.1-0.2c-0.4-0.1-0.8-0.3-1.1-0.6l0.6-1c0.3,0.2,0.6,0.4,0.9,0.5c0.3,0.1,0.6,0.2,0.8,0.2c0.2,0,0.4,0,0.5-0.1
		c0.1-0.1,0.2-0.2,0.2-0.3v0c0-0.1,0-0.1-0.1-0.2c-0.1-0.1-0.1-0.1-0.2-0.2c-0.1,0-0.2-0.1-0.4-0.1s-0.3-0.1-0.4-0.1
		c-0.2-0.1-0.4-0.1-0.6-0.2c-0.2-0.1-0.4-0.2-0.5-0.3s-0.3-0.3-0.4-0.5c-0.1-0.2-0.1-0.4-0.1-0.7v0c0-0.3,0.1-0.5,0.2-0.7
		c0.1-0.2,0.2-0.4,0.4-0.5c0.2-0.1,0.4-0.3,0.6-0.3s0.5-0.1,0.8-0.1c0.3,0,0.7,0.1,1,0.2c0.3,0.1,0.7,0.3,1,0.5l-0.6,1
		c-0.3-0.2-0.5-0.3-0.8-0.4s-0.5-0.1-0.7-0.1c-0.2,0-0.3,0-0.4,0.1c-0.1,0.1-0.1,0.2-0.1,0.3v0c0,0.1,0,0.1,0.1,0.2
		c0.1,0.1,0.1,0.1,0.2,0.2s0.2,0.1,0.3,0.1c0.1,0,0.3,0.1,0.4,0.1c0.2,0.1,0.4,0.1,0.6,0.2s0.4,0.2,0.5,0.3c0.2,0.1,0.3,0.3,0.4,0.4
		s0.1,0.4,0.1,0.6v0C186.6,29.6,186.5,29.9,186.4,30.1z"/>
	<path class="st0" d="M190.3,30.9v-0.6c-0.2,0.2-0.4,0.4-0.7,0.5c-0.3,0.1-0.6,0.2-0.9,0.2c-0.3,0-0.5,0-0.7-0.1
		c-0.2-0.1-0.4-0.2-0.6-0.3c-0.2-0.1-0.3-0.3-0.4-0.5c-0.1-0.2-0.1-0.4-0.1-0.7v0c0-0.3,0.1-0.5,0.2-0.8c0.1-0.2,0.3-0.4,0.4-0.5
		c0.2-0.1,0.4-0.2,0.7-0.3c0.3-0.1,0.5-0.1,0.9-0.1c0.3,0,0.5,0,0.7,0.1c0.2,0,0.4,0.1,0.6,0.2v-0.1c0-0.3-0.1-0.6-0.3-0.7
		s-0.5-0.2-0.8-0.2c-0.3,0-0.5,0-0.8,0.1c-0.2,0-0.5,0.1-0.7,0.2l-0.4-1.2c0.3-0.1,0.6-0.2,0.9-0.3c0.3-0.1,0.7-0.1,1.1-0.1
		c0.8,0,1.4,0.2,1.8,0.6c0.4,0.4,0.6,1,0.6,1.7v3.1H190.3z M190.4,28.8c-0.1-0.1-0.3-0.1-0.4-0.1c-0.2,0-0.3-0.1-0.5-0.1
		c-0.3,0-0.6,0.1-0.8,0.2c-0.2,0.1-0.3,0.3-0.3,0.5v0c0,0.2,0.1,0.4,0.2,0.5c0.2,0.1,0.3,0.2,0.6,0.2c0.4,0,0.6-0.1,0.9-0.3
		s0.3-0.4,0.3-0.7V28.8z"/>
	<path class="st0" d="M192.8,30.9v-7.3h1.5v7.3H192.8z"/>
	<path class="st0" d="M198.6,30.9v-0.8c-0.1,0.1-0.2,0.2-0.3,0.3s-0.2,0.2-0.3,0.3c-0.1,0.1-0.3,0.1-0.4,0.2c-0.2,0-0.3,0.1-0.5,0.1
		c-0.6,0-1-0.2-1.3-0.5c-0.3-0.4-0.5-0.8-0.5-1.5v-3.5h1.5v3c0,0.4,0.1,0.6,0.2,0.8c0.2,0.2,0.4,0.3,0.7,0.3c0.3,0,0.5-0.1,0.7-0.3
		c0.2-0.2,0.3-0.5,0.3-0.8v-3h1.5v5.3H198.6z"/>
	<path class="st0" d="M204.9,30.9v-0.8c-0.2,0.3-0.4,0.5-0.7,0.6s-0.6,0.2-1,0.2c-0.3,0-0.6-0.1-0.9-0.2c-0.3-0.1-0.5-0.3-0.8-0.5
		c-0.2-0.2-0.4-0.5-0.5-0.9s-0.2-0.7-0.2-1.2v0c0-0.4,0.1-0.8,0.2-1.2s0.3-0.6,0.5-0.9c0.2-0.2,0.5-0.4,0.8-0.5
		c0.3-0.1,0.6-0.2,0.9-0.2c0.4,0,0.7,0.1,1,0.2s0.5,0.3,0.7,0.6v-2.6h1.5v7.3H204.9z M204.9,28.3c0-0.2,0-0.4-0.1-0.6
		c-0.1-0.2-0.2-0.3-0.3-0.5c-0.1-0.1-0.3-0.2-0.4-0.3s-0.3-0.1-0.5-0.1c-0.2,0-0.3,0-0.5,0.1s-0.3,0.2-0.4,0.3s-0.2,0.3-0.3,0.5
		c-0.1,0.2-0.1,0.4-0.1,0.6v0c0,0.2,0,0.4,0.1,0.6c0.1,0.2,0.2,0.3,0.3,0.5c0.1,0.1,0.3,0.2,0.4,0.3c0.2,0.1,0.3,0.1,0.5,0.1
		c0.2,0,0.3,0,0.5-0.1c0.2-0.1,0.3-0.2,0.4-0.3c0.1-0.1,0.2-0.3,0.3-0.5C204.9,28.7,204.9,28.5,204.9,28.3L204.9,28.3z"/>
</g>
<g>
	<path class="st2" d="M144.2,30.3c0.1-0.3,0.2-0.6,0.2-0.9c0,0,0,0,0-0.1h-3c-0.9,3.4-4,5.8-7.6,5.8c-0.6,0-1.2-0.1-1.8-0.2
		c-3.8-0.9-5.9-4.2-6-6.9l0-0.3l1.8,0c0.4,0,0.8,0,1.2,0c0,0,0,0,0,0c0,0,0,0,0,0c0.5-0.7,1-1.5,1.5-2.2l0.5-0.7h-10.7l0.3-0.6
		c0-0.1,0.1-0.2,0.1-0.3c0.4-0.7,0.7-1.4,1.1-2c0.8-1.5,1.7-3.1,2.5-4.7c0.8-1.5,1-3,0.6-4.5c-0.3-1.3-1.1-2.2-2.3-2.6
		c-0.7-0.2-1.4-0.3-2.1-0.3c-0.3,0-3.4,0-3.7,0h-0.6c-0.2,0-0.5,0-0.7,0c-0.1,0-0.1,0-0.1,0.1c-0.5,0.8-1,1.5-1.5,2.3l-0.4,0.6
		l1.8,0c0.6,0,1.2,0,1.8,0c0.3,0,3.4,0,3.7,0c1,0,1.5,0.9,1.4,1.9c0,0.4-0.2,0.8-0.4,1.3c-0.2,0.5-0.5,1-0.7,1.4l-0.1,0.2
		c-1.4,2.5-2.7,4.9-4.1,7.4l-1.6,2.9h7.9l0.1,0.3c0,0.1,0,0.1,0,0.2c0.1,1,0.3,1.9,0.6,2.8c1,2.7,2.7,4.6,5.2,5.8
		c2.2,1,4.6,1.3,7.1,0.7C140.2,36.6,142.9,34.2,144.2,30.3"/>
	<path class="st2" d="M140,21.9l0-0.3c0.6,0,1.2,0,1.8,0h1.5c-0.9-1.8-2.1-3.2-3.8-4.2c-2.2-1.4-4.7-1.9-7.7-1.7
		c-0.2,0-0.5,0-0.7,0.1l-0.7,0.1v-3.2h5c0,0,0.1,0,0.1,0c0.5-0.8,1-1.5,1.5-2.2l0.4-0.7h-10V20c0.2-0.1,0.4-0.2,0.6-0.2
		c0.5-0.2,1-0.4,1.6-0.6c1.1-0.4,2.3-0.5,3.4-0.5c0.7,0,1.4,0.1,2.1,0.2c1.9,0.4,3.5,1.3,4.6,2.8c0.1,0.1,0.1,0.1,0.1,0.1V21.9z"/>
	<rect x="111.8" y="23" class="st0" width="23" height="5.9"/>
	<path class="st2" d="M116.9,32c0-0.1,0.1-0.2,0.1-0.3c0.4-0.7,0.7-1.4,1.1-2c0.8-1.5,1.7-3.1,2.5-4.7c0.5-0.9,0.7-1.8,0.8-2.8h-3
		c0,0,0,0.1,0,0.1c0,0.4-0.2,0.8-0.4,1.3c-0.2,0.5-0.5,1-0.7,1.4l-0.1,0.2c-1.4,2.5-2.7,4.9-4.1,7.4l-1.6,2.9h7.9l2.8-0.1l1.8,0
		c0.4,0,0.8,0,1.2,0h0c0,0,0,0,0,0c0,0,0,0,0,0c0.5-0.7,1-1.5,1.5-2.2l0.5-0.7h-10.7L116.9,32z"/>
</g>
<g>
	<path class="st3" d="M127.2,27.7h-0.8l-0.4-1h-2l-0.4,1h-0.8l1.9-4.3h0.7L127.2,27.7z M124.9,24.3l-0.7,1.7h1.5L124.9,24.3z"/>
	<path class="st3" d="M132.1,23.4h0.7v4.3h-0.6l-2.4-3v3h-0.7v-4.3h0.7l2.3,3V23.4z M131.9,22.9c-0.1,0.1-0.2,0.2-0.4,0.2
		c-0.1,0-0.2,0-0.3,0c-0.1,0-0.2-0.1-0.2-0.1s-0.1-0.1-0.2-0.1s-0.1,0-0.2,0c-0.1,0-0.2,0-0.2,0.1c0,0-0.1,0.1-0.1,0.2l-0.4-0.1
		c0.1-0.2,0.2-0.4,0.3-0.6c0.1-0.1,0.2-0.2,0.4-0.2c0.1,0,0.2,0,0.3,0c0.1,0,0.2,0.1,0.2,0.1c0.1,0,0.1,0.1,0.2,0.1
		c0.1,0,0.1,0,0.2,0c0.1,0,0.2,0,0.2-0.1c0,0,0.1-0.1,0.1-0.2l0.4,0.1C132.1,22.6,132,22.7,131.9,22.9z"/>
	<path class="st3" d="M139.3,26.4c-0.1,0.3-0.3,0.5-0.5,0.7c-0.2,0.2-0.4,0.4-0.7,0.5c-0.3,0.1-0.6,0.2-0.9,0.2
		c-0.3,0-0.6-0.1-0.9-0.2s-0.5-0.3-0.7-0.5c-0.2-0.2-0.3-0.4-0.5-0.7c-0.1-0.3-0.2-0.6-0.2-0.9c0-0.3,0.1-0.6,0.2-0.9
		c0.1-0.3,0.3-0.5,0.5-0.7c0.2-0.2,0.4-0.4,0.7-0.5c0.3-0.1,0.6-0.2,0.9-0.2s0.6,0.1,0.9,0.2s0.5,0.3,0.7,0.5
		c0.2,0.2,0.3,0.4,0.5,0.7c0.1,0.3,0.2,0.6,0.2,0.9S139.4,26.2,139.3,26.4z M138.6,25c-0.1-0.2-0.2-0.3-0.3-0.5
		c-0.1-0.1-0.3-0.2-0.5-0.3c-0.2-0.1-0.4-0.1-0.6-0.1c-0.2,0-0.4,0-0.6,0.1c-0.2,0.1-0.3,0.2-0.5,0.3c-0.1,0.1-0.2,0.3-0.3,0.5
		c-0.1,0.2-0.1,0.4-0.1,0.6s0,0.4,0.1,0.6c0.1,0.2,0.2,0.3,0.3,0.5c0.1,0.1,0.3,0.2,0.5,0.3c0.2,0.1,0.4,0.1,0.6,0.1s0.4,0,0.6-0.1
		c0.2-0.1,0.3-0.2,0.5-0.3s0.2-0.3,0.3-0.5s0.1-0.4,0.1-0.6S138.6,25.2,138.6,25z"/>
	<path class="st3" d="M142.2,24.8c0,0.1,0.1,0.1,0.2,0.2c0.1,0.1,0.2,0.1,0.3,0.1s0.3,0.1,0.5,0.1c0.2,0.1,0.4,0.1,0.6,0.2
		s0.3,0.2,0.4,0.3c0.1,0.1,0.2,0.2,0.3,0.3c0.1,0.1,0.1,0.3,0.1,0.5c0,0.2,0,0.4-0.1,0.5c-0.1,0.2-0.2,0.3-0.3,0.4s-0.3,0.2-0.5,0.3
		c-0.2,0.1-0.4,0.1-0.6,0.1c-0.3,0-0.6-0.1-0.9-0.2c-0.3-0.1-0.6-0.3-0.8-0.5l0.5-0.5c0.2,0.2,0.4,0.3,0.6,0.4
		c0.2,0.1,0.5,0.1,0.7,0.1c0.2,0,0.4,0,0.6-0.1c0.1-0.1,0.2-0.2,0.2-0.4c0-0.1,0-0.1,0-0.2s-0.1-0.1-0.1-0.2s-0.2-0.1-0.3-0.1
		c-0.1,0-0.3-0.1-0.5-0.1c-0.2-0.1-0.4-0.1-0.6-0.2s-0.3-0.1-0.4-0.2c-0.1-0.1-0.2-0.2-0.3-0.4s-0.1-0.3-0.1-0.5
		c0-0.2,0-0.4,0.1-0.5c0.1-0.2,0.2-0.3,0.3-0.4c0.1-0.1,0.3-0.2,0.5-0.3c0.2-0.1,0.4-0.1,0.6-0.1c0.3,0,0.6,0,0.8,0.1
		s0.5,0.2,0.7,0.4l-0.4,0.6c-0.2-0.1-0.4-0.3-0.6-0.3c-0.2-0.1-0.4-0.1-0.6-0.1c-0.2,0-0.4,0-0.5,0.1c-0.1,0.1-0.2,0.2-0.2,0.4
		C142.2,24.6,142.2,24.7,142.2,24.8z"/>
</g>
<g>
	<polygon class="st2" points="119.7,19.9 111,35.6 115.3,35.6 123.6,18.8 	"/>
</g>
</svg>
